<?xml version="1.0" encoding="UTF-8"?>
<svg width="139px" height="165px" viewBox="0 0 139 165" version="1.1" xmlns="http://www.w3.org/2000/svg" xmlns:xlink="http://www.w3.org/1999/xlink">
    <!-- Generator: Sketch 52.2 (67145) - http://www.bohemiancoding.com/sketch -->
    <title>Group 2</title>
    <desc>Created with Sketch.</desc>
    <g id="Pages" stroke="none" stroke-width="1" fill="none" fill-rule="evenodd">
        <g id="Index" transform="translate(-1098.000000, -1226.000000)" fill-rule="nonzero">
            <g id="services" transform="translate(-5.000000, 1142.000000)">
                <g id="Delivery" transform="translate(138.000000, 72.000000)">
                    <g id="delivery">
                        <g id="Group-2" transform="translate(965.000000, 12.000000)">
                            <g id="Group" transform="translate(6.000000, 6.000000)" fill="#FFFFFF">
                                <path d="M87.133,33.767 C95.254,33.767 102.078,28.225 104.033,20.718 L109.5,21.532 C110.678009,21.7061898 111.774624,20.8936837 111.951,19.716 C112.126348,18.5377012 111.313298,17.4403528 110.135,17.265 L104.594,16.44 C104.596,16.394 104.598,16.349 104.598,16.302 C104.598,16.12 104.592,15.94 104.584,15.76 C104.584,15.76 104.133,9.242 103.51,6.523 C102.889,3.804 100.975,3.227 100.975,3.227 C91.205,1.015 81.203,0.789 78.6,0.789 C75.997,0.789 75.442,2.121 75.442,2.121 L72.292,7.117 L72.282,7.114 C72.206,7.236 72.136,7.359 72.063,7.482 L72.036,7.525 C70.4826044,10.1889884 69.6656818,13.2181937 69.669,16.302 C69.668,25.948 77.488,33.767 87.133,33.767 Z M125.535,73.076 L125.535,73.074 L98.793,70.906 L89.547,49.794 C89.547,49.794 89.086,47.02 83.539,41.318 C77.99,35.616 66.74,37.928 66.74,37.928 C66.74,37.928 42.854,42.397 34.995,44.246 C27.135,46.096 26.827,54.109 26.827,54.109 L26.195,58.628 L11.017,55.687 C9.39197005,55.3787121 7.82236784,56.4385061 7.501,58.061 L0.09,96.303 C-0.220555165,97.9288283 0.840793567,99.5000713 2.465,99.819 L53.661,109.742 C53.776,109.764 53.891,109.766 54.007,109.775 L54.009,109.775 C53.281,109.879 52.718,109.74 52.718,109.74 L43.318,107.891 L40.236,124.996 L16.676,145.359 C14.5104679,147.067936 13.4700129,149.835985 13.9737095,152.548232 C14.477406,155.260478 16.4423281,157.470393 19.0770445,158.287866 C21.7117609,159.105339 24.5825055,158.395785 26.533,156.445 C26.533,156.445 54.258,134.395 56.108,132.854 C57.958,131.314 58.881,129.001 58.881,129.001 C58.881,129.001 63.422,115.053 64.66,112.127 C65.508,110.123 69.592,111.048 69.592,111.048 L92.477,119.679 L100.092,148.741 C100.174,149.371 100.334,149.975 100.565,150.545 L100.567,150.545 C102.02114,154.153422 106.013132,156.028541 109.718738,154.843755 C113.424344,153.65897 115.588012,149.815714 114.679,146.033 C113.837,141.068 110.075,118.987 109.118,114.207 C108.04,108.813 104.497,107.273 104.497,107.273 C104.497,107.273 83.229,95.715 81.843,94.944 C80.456,94.174 80.765,92.17 80.765,92.17 L84.695,77.839 L87.468,83.695 C87.468,83.695 89.087,86.969 91.552,87.086 L124.909,87.906 C126.879732,87.906 128.769733,87.1230614 130.163157,85.7294498 C131.556581,84.3358383 132.339265,82.4457318 132.339,80.475 C132.33662,76.6159582 129.380321,73.4011353 125.535,73.076 Z M54.104,57.807 L52.315,63.687 L62.213,65.606 L41.999,61.689 L42.547,59.193 L54.104,57.807 Z M51.855,103.28 L6.551,94.499 L12.821,62.146 L25.363,64.577 L23.745,76.144 L23.105,80.55 C23.1,80.576 23.097,80.606 23.093,80.632 L23.075,80.759 L23.077,80.759 C22.8039166,82.8772686 23.4556018,85.0106125 24.8657716,86.6146878 C26.2759414,88.2187631 28.3082013,89.1384204 30.444,89.139 C32.5774166,89.1388457 34.6077732,88.2213894 36.0178061,86.6203667 C37.427839,85.019344 38.0814056,82.8893381 37.812,80.773 L40.713,67.55 L58.126,70.924 L51.855,103.28 Z M19.05,12.008 L57.077,12.008 C58.177,12.008 59.077,11.112 59.077,10.018 C59.077,8.924 58.177,8.028 57.077,8.028 L19.05,8.028 C17.95,8.028 17.05,8.924 17.05,10.018 C17.05,11.112 17.95,12.008 19.05,12.008 Z M32.08,18.025 C30.98,18.025 30.08,18.921 30.08,20.015 C30.08,21.109 30.98,22.005 32.08,22.005 L55.039,22.005 C56.139,22.005 57.039,21.109 57.039,20.015 C57.0334966,18.9143377 56.139676,18.0249862 55.039,18.025 L32.08,18.025 Z" id="Shape"></path>
                            </g>
                            <path d="M87.098,33.732 C95.219,33.732 102.043,28.19 103.998,20.683 L109.465,21.497 C110.643009,21.6711898 111.739624,20.8586837 111.916,19.681 C112.091348,18.5027012 111.278298,17.4053528 110.1,17.23 L104.559,16.405 C104.561,16.359 104.563,16.314 104.563,16.267 C104.563,16.085 104.557,15.905 104.549,15.725 C104.549,15.725 104.098,9.207 103.475,6.488 C102.854,3.769 100.94,3.192 100.94,3.192 C91.17,0.98 81.168,0.754 78.564,0.754 C75.96,0.754 75.406,2.086 75.406,2.086 L72.256,7.082 L72.246,7.079 C72.17,7.2 72.1,7.324 72.027,7.447 L72,7.49 C70.4466044,10.1539884 69.6296818,13.1831937 69.633,16.267 C69.633,25.913 77.453,33.732 87.098,33.732 Z M125.5,73.041 L125.5,73.039 L98.758,70.871 L89.512,49.759 C89.512,49.759 89.051,46.985 83.504,41.283 C77.955,35.581 66.705,37.893 66.705,37.893 C66.705,37.893 42.819,42.362 34.96,44.21 C27.1,46.06 26.792,54.073 26.792,54.073 L23.71,76.109 L23.07,80.515 C23.065,80.541 23.062,80.571 23.058,80.597 L23.04,80.724 L23.042,80.724 C22.7689166,82.8422686 23.4206018,84.9756125 24.8307716,86.5796878 C26.2409414,88.1837631 28.2732013,89.1034204 30.409,89.104 C32.5424166,89.1038457 34.5727732,88.1863894 35.9828061,86.5853667 C37.392839,84.984344 38.0464056,82.8543381 37.777,80.738 L42.511,59.157 L54.068,57.771 L52.279,63.651 L62.177,65.57 C63.8010196,65.8899019 64.8620116,67.4610634 64.552,69.087 L57.14,107.33 C56.8624565,108.739312 55.6283766,109.756548 54.192,109.76 C54.12,109.76 54.046,109.744 53.972,109.739 C53.244,109.843 52.681,109.704 52.681,109.704 L43.281,107.855 L40.199,124.96 L16.639,145.323 C14.4734679,147.031936 13.4330129,149.799985 13.9367095,152.512232 C14.440406,155.224478 16.4053281,157.434393 19.0400445,158.251866 C21.6747609,159.069339 24.5455055,158.359785 26.496,156.409 C26.496,156.409 54.221,134.359 56.071,132.818 C57.921,131.278 58.844,128.965 58.844,128.965 C58.844,128.965 63.385,115.017 64.623,112.091 C65.471,110.087 69.555,111.012 69.555,111.012 L92.44,119.643 L100.055,148.705 C100.137,149.335 100.297,149.939 100.528,150.509 L100.53,150.509 C101.98414,154.117422 105.976132,155.992541 109.681738,154.807755 C113.387344,153.62297 115.551012,149.779714 114.642,145.997 C113.8,141.032 110.038,118.951 109.081,114.171 C108.003,108.777 104.46,107.237 104.46,107.237 C104.46,107.237 83.193,95.682 81.807,94.91 C80.42,94.14 80.729,92.136 80.729,92.136 L84.659,77.805 L87.432,83.661 C87.432,83.661 89.051,86.935 91.516,87.052 L124.873,87.872 C128.843461,87.8569226 132.100447,84.7228325 132.268155,80.7558862 C132.435862,76.78894 129.455021,73.3911376 125.5,73.041 Z" id="Shape" fill="#3A3A3A"></path>
                            <path d="M53.971,109.739 L53.973,109.739 C54.046,109.745 54.12,109.76 54.193,109.76 C55.6,109.76 56.864,108.76 57.141,107.33 L64.553,69.087 C64.8630116,67.4610634 63.8020196,65.8899019 62.178,65.57 L41.964,61.653 L40.678,67.515 L58.091,70.889 L51.82,103.243 L6.516,94.464 L12.786,62.111 L25.328,64.542 L26.16,58.592 L10.982,55.65 C9.35697005,55.3417121 7.78736784,56.4015061 7.466,58.024 L0.055,96.268 C-0.255555165,97.8938283 0.805793567,99.4650713 2.43,99.784 L53.626,109.707 C53.74,109.729 53.855,109.73 53.971,109.739 Z" id="Shape" fill="#F0C42E"></path>
                            <path d="M59.042,9.982 C59.0364966,11.0826623 58.142676,11.9720138 57.042,11.972 L19.015,11.972 C17.915,11.972 17.015,11.076 17.015,9.982 C17.015,8.888 17.915,7.992 19.015,7.992 L57.042,7.992 C58.142,7.993 59.042,8.888 59.042,9.982 Z M57.004,19.98 C57.004,21.074 56.104,21.97 55.004,21.97 L32.044,21.97 C30.944,21.97 30.044,21.074 30.044,19.98 C30.0495034,18.8793377 30.943324,17.9899862 32.044,17.99 L55.003,17.99 C56.104,17.99 57.004,18.886 57.004,19.98 Z" id="Shape" fill="#F0C52E"></path>
                        </g>
                    </g>
                </g>
            </g>
        </g>
    </g>
</svg>